<svg xmlns="http://www.w3.org/2000/svg"  viewBox="0 0 50 50" width="100px" height="100px"><path d="M 31 10 L 17 11 L 5 18 L 8 18 L 8 27.203125 C 7.402344 27.699219 7 29.019531 7 30.5 C 7 32.433594 7.671875 34 8.5 34 C 9.328125 34 10 32.433594 10 30.5 C 10 29.019531 9.597656 27.699219 9 27.203125 L 9 18 L 12.160156 18 C 12.0625 18.484375 12 18.984375 12 19.5 C 12 20.019531 12.054688 20.527344 12.15625 21.015625 C 12.433594 21.007813 12.714844 21 13 21 C 16.605469 21 19.5625 21.808594 21 23 C 21.585938 21.226563 23.355469 18.96875 25.660156 16.894531 C 25.871094 16.707031 26.085938 16.523438 26.296875 16.34375 C 25.960938 15.621094 25.5 14.96875 24.957031 14.390625 Z M 24.171875 12.492188 L 19.347656 16 L 12.398438 16 L 17.605469 12.964844 Z M 34 16 C 31.695313 16 29.597656 16.882813 28 18.320313 C 27.710938 18.058594 27.175781 16.992188 27.019531 16.992188 C 27.011719 16.992188 27.003906 16.996094 27 17 C 25.375 18.460938 23.824219 20.582031 23 22 C 24.210938 22.550781 25 24.089844 25 25.5 L 25 37 L 31 37 L 31 25.5 C 31 23.574219 32.574219 22 34.5 22 C 36.425781 22 38 23.574219 38 25.5 L 38 37 L 44 37 L 44 25 C 44 20.050781 39.949219 16 35 16 Z M 34 18 L 35 18 C 38.859375 18 42 21.140625 42 25 L 42 35 L 40 35 L 40 25.5 C 40 22.46875 37.53125 20 34.5 20 C 31.46875 20 29 22.46875 29 25.5 L 29 35 L 27 35 L 27 25.5 C 27 24.0625 26.484375 22.660156 25.632813 21.609375 C 26.007813 21.082031 26.433594 20.53125 26.878906 20.003906 L 28 21.011719 L 29.339844 19.808594 C 30.632813 18.640625 32.289063 18 34 18 Z M 13 22 C 12.839844 22 12.6875 22.007813 12.53125 22.011719 C 12.195313 22.949219 12 23.949219 12 25 L 12 37 L 18 37 L 18 25.5 C 18 24.492188 18.433594 23.582031 19.125 22.949219 C 17.519531 22.363281 15.375 22 13 22 Z M 14.074219 24.027344 C 14.792969 24.0625 15.492188 24.136719 16.148438 24.246094 C 16.050781 24.652344 16 25.074219 16 25.5 L 16 35 L 14 35 L 14 25 C 14 24.679688 14.023438 24.351563 14.074219 24.027344 Z"/></svg>